<?xml version="1.0" standalone="no"?>
<!DOCTYPE svg PUBLIC "-//W3C//DTD SVG 20010904//EN"
 "http://www.w3.org/TR/2001/REC-SVG-20010904/DTD/svg10.dtd">
<svg version="1.0" xmlns="http://www.w3.org/2000/svg"
 width="700.000000pt" height="700.000000pt" viewBox="0 0 700.000000 700.000000"
 preserveAspectRatio="xMidYMid meet">
<metadata>
Created by potrace 1.11, written by Peter Selinger 2001-2013
</metadata>
<g transform="translate(0.000000,700.000000) scale(0.100000,-0.100000)"
fill="#000000" stroke="none">
<path d="M3040 6994 c-14 -3 -70 -12 -125 -20 -302 -48 -629 -151 -923 -290
-982 -466 -1690 -1347 -1932 -2404 -59 -260 -62 -290 -57 -831 l3 -494 32
-145 c172 -795 541 -1433 1135 -1962 383 -341 889 -614 1387 -749 341 -92 344
-93 896 -97 546 -3 588 0 872 69 1271 308 2273 1303 2591 2574 76 304 76 308
76 850 0 469 -1 495 -23 610 -69 365 -174 678 -326 977 -467 922 -1305 1590
-2303 1837 -297 74 -302 75 -813 77 -256 1 -476 0 -490 -2z m710 -293 l75 -6
5 -312 5 -311 -180 -4 c-99 -2 -181 -3 -182 -3 -1 1 -3 146 -5 323 l-3 322
105 -1 c58 -1 139 -4 180 -8z m440 -1001 c347 -31 606 -73 1355 -221 644 -128
566 -96 674 -270 302 -484 466 -1016 488 -1576 l6 -163 -787 0 -786 0 -90 45
c-321 161 -735 264 -1181 295 -253 17 -460 39 -614 66 -689 121 -1135 333
-1263 602 -34 71 -37 84 -37 167 1 108 19 175 82 300 65 129 122 205 216 283
350 292 743 440 1282 482 129 10 491 5 655 -10z m-1907 -1910 c230 -108 565
-205 911 -265 199 -34 281 -43 531 -60 449 -31 730 -87 1025 -204 491 -195
680 -515 565 -956 -59 -224 -200 -423 -395 -555 -84 -57 -262 -140 -384 -179
-114 -37 -345 -84 -496 -101 -260 -30 -745 -28 -1077 5 -617 60 -1407 218
-2053 409 -255 75 -233 63 -279 154 -252 501 -375 1087 -342 1621 7 107 14
157 23 162 7 5 434 9 949 9 l936 0 86 -40z m1547 -3089 l0 -390 23 -3 c20 -4
-16 -7 -290 -24 l-93 -6 0 406 0 406 180 0 180 0 0 -389z m1240 -6 c0 -2 -13
-11 -30 -20 -38 -19 -40 -11 -2 9 31 17 32 18 32 11z m-210 -110 c-25 -13 -49
-24 -55 -24 -5 0 10 11 35 24 25 13 50 24 55 24 6 0 -10 -11 -35 -24z m-90
-40 c-14 -8 -29 -14 -35 -14 -5 0 1 6 15 14 14 8 30 14 35 14 6 0 -1 -6 -15
-14z m-90 -37 c-118 -53 -448 -149 -560 -163 -25 -3 2 6 60 20 177 42 320 84
425 125 107 41 149 51 75 18z m-635 -178 c-16 -4 -43 -8 -60 -8 -29 1 -29 1 5
8 19 4 46 7 60 8 22 0 22 -1 -5 -8z m-107 -17 c-10 -2 -28 -2 -40 0 -13 2 -5
4 17 4 22 1 32 -1 23 -4z"/>
</g>
</svg>
