<svg xmlns="http://www.w3.org/2000/svg" width="210mm" height="297mm" viewBox="0 0 744.09449 1052.3622" id="svg2"><title id="title3511">Scot_logo</title><style id="style4155">.objeto{stroke-linejoin:round;stroke-opacity:1;fill-rule:evenodd;stroke-dashoffset:0;stroke-linecap:round;stroke-miterlimit:4;stroke-dasharray:none}.trazo{stroke:#009aa9;stroke-width:2;fill:none}.relleno{stroke:none;stroke-width:0;display:inline}.trazo_primario{stroke:#009aa9}.trazo_claro{stroke:#69bfc8}.lateral_impar{fill:#000}.central_impar,.central_par{fill:#fff}.lateral_par{fill:#000}.texto{stroke-linejoin:round;stroke-opacity:1;fill-rule:evenodd;stroke-dashoffset:0;stroke-linecap:round;stroke-miterlimit:4;stroke-dasharray:none;stroke:#009aa9;stroke-width:2;fill:none}</style><g id="layer1"><path d="M385.018 77.618l.469 100.769c-100.676-3.113-183.503 58.227-192.124 115.246-9.353 95.95 140.266 107.615 188.975 115.406l-357.499-.945C38.451 174.437 237.181 70.568 385.019 77.618z" id="zona_1_lateral" class="objeto relleno lateral_impar"/><path d="M385.348 178.387c-.01-32.045-.51-68.89-.519-100.937 108.5 5.301 195.012 56.736 260.463 136.21-86.674-16.238-183.184-36.656-259.944-35.273z" id="zona_2_lateral" class="objeto relleno lateral_par"/><path d="M385.067 652.181c213.788 14.297 300.613-235.51-.192-244.294l330.208.15c11.783 192.012-145.086 352.732-330.368 361.839z" id="zona_3_lateral" class="objeto relleno lateral_impar"/><path d="M71.062 599.855c96.417 29.402 221.857 53.65 314.02 53.817l.227 116.258c-130.395 8.926-257.554-65.733-314.247-170.075z" id="zona_4_lateral" class="objeto relleno lateral_par"/><path d="M385.545 177.853C284.87 174.74 202.043 236.08 193.422 293.099c-9.353 95.95 142.736 109.344 191.692 115.653z" id="zona_1_central" class="objeto relleno central_impar"/><path d="M385.293 652.973c213.788 14.297 300.613-235.51-.192-244.294z" id="zona_3_central" class="objeto relleno central_impar"/><path class="objeto relleno central_par" id="zona_2_central" d="M385.24 178.037l.788 230.01s322.005 1.916 328.972.555c.195-61.155-28.042-147.32-69.589-194.941-89.868-17.391-178.706-36.228-260.17-35.624z"/><path class="objeto relleno central_par" id="zona_4_central" d="M24.847 408.048c-5.297 89.814 22.889 147.749 45.745 191.237 95.923 31.624 217.418 53.9 315.264 53.818l-.586-244.043z"/></g><g transform="translate(0 1004.362)" id="layer2"><path d="M23.74-595.273h691.5" id="linea_horizontal" class="objeto trazo trazo_claro"/><path d="M385.24-233.773l-.003-691.5" id="linea_vertical" class="objeto trazo trazo_claro"/></g><g transform="translate(0 1004.362)" id="layer_o" opacity=".99"><ellipse class="objeto trazo_primario trazo" id="linea_o" cx="369.983" cy="-579.98" rx="346.711" ry="346.677"/></g><g transform="translate(0 1004.362)" id="layer_s"><path d="M71.157-404.923s454.887 149.66 503.99-49.67c34.528-140.16-189.907-140.68-189.907-140.68s-276.755-18.893-166.917-166.065c110.896-109.105 289.894-54.688 426.993-29.168" id="linea_s" class="objeto trazo_primario trazo"/></g><g id="layer3"><g id="g5389"><path d="M275.706 867.694l87.419-.967" id="path4140-4" class="texto"/><path d="M320.343 911.664l1.203-89.029" id="path4140-3-2" class="texto texto_t"/></g><ellipse class="texto texto_o" ry="45.187" rx="42.635" cy="868.228" cx="225.798" id="path4136-5-9"/><path class="texto texto_c" d="M173.617 896.89a42.635 45.187 0 0 1-47.554 14.325A42.635 45.187 0 0 1 97.71 868.29a42.635 45.187 0 0 1 28.97-42.457 42.635 45.187 0 0 1 47.342 15.095" id="path4136-5-9-9"/><ellipse class="texto texto_30_0" ry="45.187" rx="42.635" cy="867.663" cx="510.573" id="path4136-5-9-0"/><ellipse class="texto texto_04_0" ry="45.187" rx="42.635" cy="867.542" cx="601.594" id="path4136-5-9-3"/><g id="g5393"><path d="M653.844 866.898l85.411-.978" id="path4140-4-3" class="texto texto_30_4"/><path d="M696.473 912.58l1.191-90.74" id="path4140-3-2-1" class="texto texto_04_4"/><path id="path4136-5-9-3-3" d="M654.255 873.455a42.635 45.187 0 0 1 13.29-39.706 42.635 45.187 0 0 1 38.415-10.83" class="texto texto_04_4"/></g><g id="g5401"><g id="g5398"><path class="texto texto_30_3" d="M389.581 836.378a42.635 45.187 0 0 1 46.568-10.344 42.635 45.187 0 0 1 26.609 41.805 42.635 45.187 0 0 1-26.49 41.89 42.635 45.187 0 0 1-46.597-10.196" id="path4136-5-9-7"/></g><path d="M377.401 867.886l85.411-.977" id="path4140-4-3-7" class="texto texto_30_3"/></g><g id="letra_s_scot"><path id="path4136-5-9-6" d="M8.542 879.3a42.635 45.187 0 0 1 20.752-50.317 42.635 45.187 0 0 1 51.25 8.067" class="texto texto_s" fill="none" fill-rule="evenodd" stroke="#009aa9" stroke-width="2" stroke-linecap="round" stroke-linejoin="round"/><path id="path4136-5-9-6-3" d="M90.26 862.871a42.635 45.187-.52 0 1-21.218 49.415 42.635 45.187-.52 0 1-50.704-7.934" class="texto texto_s" fill="none" fill-rule="evenodd" stroke="#009aa9" stroke-width="2" stroke-linecap="round" stroke-linejoin="round"/><path d="M7.756 871.013l82.911-.62" id="path4140-4-3-7-9" class="texto texto_s" fill="none" fill-rule="evenodd" stroke="#009aa9" stroke-width="2" stroke-linecap="round" stroke-linejoin="round"/></g></g></svg>