<svg id="svg2" xmlns="http://www.w3.org/2000/svg" height="48" width="48" viewBox="0 0 48 48"><title id="title3511">Scot_logo</title><style id="style4155">.objeto{stroke-linejoin:round;stroke-opacity:1;fill-rule:evenodd;stroke-dashoffset:0;stroke-linecap:round;stroke-miterlimit:4;stroke-dasharray:none}.trazo{stroke:#009aa9;stroke-width:2.5;fill:none}.relleno{stroke:none;stroke-width:0;display:inline}.trazo_primario{stroke:#009aa9}.trazo_claro{stroke:#69bfc8}.lateral_impar{fill:#000}.central_impar,.central_par{fill:#fff}.lateral_par{fill:#000}</style><g id="layer1" transform="translate(0 -1004.4)"><path id="zona_1_lateral" d="M24.985 1005.3l.031 6.718c-6.711-.208-12.234 3.882-12.808 7.683-.623 6.397 9.351 7.174 12.598 7.694l-23.833-.063c.908-15.577 14.156-22.502 24.012-22.032z" class="objeto relleno lateral_impar"/><path id="zona_2_lateral" d="M25.007 1012c0-2.136-.034-4.593-.035-6.73 7.234.354 13.001 3.783 17.364 9.082-5.778-1.083-12.212-2.444-17.33-2.352z" class="objeto relleno lateral_par"/><path id="zona_3_lateral" d="M24.988 1043.6c14.253.953 20.041-15.701-.013-16.286l22.014.01c.786 12.801-9.672 23.516-22.025 24.123z" class="objeto relleno lateral_impar"/><path id="zona_4_lateral" d="M4.055 1040.1c6.428 1.96 14.79 3.577 20.935 3.588l.015 7.75c-8.693.595-17.17-4.382-20.95-11.338z" class="objeto relleno lateral_par"/><path id="zona_1_central" d="M25.02 1011.9c-6.712-.207-12.234 3.882-12.808 7.683-.624 6.397 9.516 7.29 12.78 7.71z" class="objeto relleno central_impar"/><path id="zona_3_central" d="M25.003 1043.6c14.253.953 20.041-15.701-.013-16.286z" class="objeto relleno central_impar"/><path id="zona_2_central" class="objeto relleno central_par" d="M25 1012l.052 15.334s21.467.128 21.931.037c.014-4.077-1.869-9.821-4.639-12.996-5.99-1.16-11.914-2.415-17.345-2.375z"/><path id="zona_4_central" d="M.974 22.931C.62 28.919 2.5 32.781 4.024 35.68c6.394 2.108 14.494 3.593 21.017 3.588l-.039-16.27z" class="objeto relleno central_par" transform="translate(0 1004.4)"/></g><g id="layer2"><path id="linea_horizontal" d="M.9 23H47" class="objeto trazo trazo_claro"/><path id="linea_vertical" d="M25 47.1V1" class="objeto trazo trazo_claro"/></g><g id="layer_o" opacity=".99"><ellipse id="linea_o" class="objeto trazo_primario trazo" rx="23.114" ry="23.112" cy="24.019" cx="23.983"/></g><g id="layer_s"><path id="linea_s" d="M4.061 35.69s30.326 9.977 33.6-3.311c2.301-9.344-12.66-9.38-12.66-9.38S6.55 21.74 13.871 11.93c7.393-7.274 19.326-3.646 28.466-1.945" class="objeto trazo_primario trazo"/></g></svg>