<svg xmlns="http://www.w3.org/2000/svg" width="48" height="48" viewBox="0 0 48 48" id="svg2"><style id="style4155">.relleno,.trazo{stroke-linejoin:round;stroke-opacity:1;stroke-dashoffset:0;stroke-linecap:round;stroke-miterlimit:4;stroke-dasharray:none}.trazo{fill-rule:evenodd;fill:none;stroke:#009aa9;stroke-width:2.5}.relleno{fill-opacity:1;stroke:none;stroke-width:0;display:inline}.trazo_primario{stroke:#009aa9}.trazo_claro{stroke:#69bfc8}.lateral_impar{fill:#000}.central_impar,.central_par{fill:#fff}.lateral_par{fill:#000}</style><g transform="translate(0 -1004.362)" id="layer1"><path class="objeto relleno lateral_impar" id="zona_1_lateral" d="M24.985 1005.264l.031 6.718c-6.711-.207-12.233 3.882-12.808 7.683-.623 6.397 9.351 7.174 12.599 7.694l-23.834-.063c.908-15.577 14.156-22.502 24.012-22.032z"/><path class="objeto relleno lateral_par" id="zona_2_lateral" d="M25.007 1011.982c0-2.136-.034-4.593-.034-6.73 7.233.354 13 3.783 17.364 9.082-5.778-1.083-12.213-2.444-17.33-2.352z"/><path class="objeto relleno lateral_impar" id="zona_3_lateral" d="M24.988 1043.568c14.253.953 20.041-15.7-.012-16.286l22.013.01c.786 12.8-9.672 23.515-22.024 24.123z"/><path class="objeto relleno lateral_par" id="zona_4_lateral" d="M4.055 1040.08c6.428 1.96 14.79 3.577 20.934 3.588l.016 7.75c-8.693.595-17.17-4.382-20.95-11.338z"/><path class="objeto relleno central_impar" id="zona_1_central" d="M25.02 1011.946c-6.711-.207-12.233 3.882-12.808 7.684-.623 6.396 9.516 7.29 12.78 7.71z"/><path class="objeto relleno central_impar" id="zona_3_central" d="M25.003 1043.621c14.253.953 20.041-15.7-.012-16.286z"/><path d="M25 1011.959l.052 15.334s21.467.127 21.932.037c.013-4.077-1.87-9.822-4.64-12.996-5.99-1.16-11.913-2.416-17.344-2.375z" id="zona_2_central" class="objeto relleno central_par"/><path d="M.974 22.93C.62 28.919 2.5 32.78 4.024 35.68c6.394 2.108 14.494 3.593 21.017 3.588l-.039-16.27z" transform="translate(0 1004.362)" id="zona_4_central" class="objeto relleno central_par"/></g><g id="layer2"><path class="objeto trazo trazo_claro" id="linea_horizontal" d="M.9 23H47"/><path class="objeto trazo trazo_claro" id="linea_vertical" d="M25 47.1V1"/></g><g id="layer_o" opacity=".99"><ellipse ry="23.112" rx="23.114" cy="24.019" cx="23.983" id="linea_o" class="objeto trazo_primario trazo"/></g><g id="layer_s"><path class="objeto trazo_primario trazo" id="linea_s" d="M4.061 35.69s30.326 9.977 33.6-3.311C39.961 23.035 25 23 25 23S6.55 21.74 13.872 11.929c7.393-7.274 19.326-3.646 28.466-1.945"/></g></svg>